<mxfile host="65bd71144e">
    <diagram id="R2lEEEUBdFMjLlhIrx00" name="Page-1">
        <mxGraphModel dx="1134" dy="1840" grid="1" gridSize="10" guides="1" tooltips="1" connect="1" arrows="1" fold="1" page="1" pageScale="1" pageWidth="850" pageHeight="1100" math="0" shadow="0" extFonts="Permanent Marker^https://fonts.googleapis.com/css?family=Permanent+Marker">
            <root>
                <mxCell id="0"/>
                <mxCell id="1" parent="0"/>
                <mxCell id="MRFSTMbE_hCWhbhtokgA-1" value="Libro" style="swimlane;childLayout=stackLayout;horizontal=1;startSize=30;horizontalStack=0;rounded=1;fontSize=14;fontStyle=0;strokeWidth=2;resizeParent=0;resizeLast=1;shadow=0;dashed=0;align=center;" parent="1" vertex="1">
                    <mxGeometry x="30" y="-100" width="160" height="120" as="geometry"/>
                </mxCell>
                <mxCell id="MRFSTMbE_hCWhbhtokgA-2" value="+isbn [PK]&#10;+titutlo&#10;+numero_paginas" style="align=left;strokeColor=none;fillColor=none;spacingLeft=4;fontSize=12;verticalAlign=top;resizable=0;rotatable=0;part=1;" parent="MRFSTMbE_hCWhbhtokgA-1" vertex="1">
                    <mxGeometry y="30" width="160" height="90" as="geometry"/>
                </mxCell>
                <mxCell id="MRFSTMbE_hCWhbhtokgA-4" value="Autor" style="swimlane;childLayout=stackLayout;horizontal=1;startSize=30;horizontalStack=0;rounded=1;fontSize=14;fontStyle=0;strokeWidth=2;resizeParent=0;resizeLast=1;shadow=0;dashed=0;align=center;" parent="1" vertex="1">
                    <mxGeometry x="580" y="-70" width="180" height="130" as="geometry"/>
                </mxCell>
                <mxCell id="MRFSTMbE_hCWhbhtokgA-5" value="+codigo_autor [PK]&#10;+nombre&#10;+apellido&#10;+fecha_nacimiento&#10;+fecha_muerte&#10;" style="align=left;strokeColor=none;fillColor=none;spacingLeft=4;fontSize=12;verticalAlign=top;resizable=0;rotatable=0;part=1;" parent="MRFSTMbE_hCWhbhtokgA-4" vertex="1">
                    <mxGeometry y="30" width="180" height="100" as="geometry"/>
                </mxCell>
                <mxCell id="MRFSTMbE_hCWhbhtokgA-7" value="Prestamo" style="swimlane;childLayout=stackLayout;horizontal=1;startSize=30;horizontalStack=0;rounded=1;fontSize=14;fontStyle=0;strokeWidth=2;resizeParent=0;resizeLast=1;shadow=0;dashed=0;align=center;" parent="1" vertex="1">
                    <mxGeometry x="210" y="200" width="160" height="140" as="geometry"/>
                </mxCell>
                <mxCell id="MRFSTMbE_hCWhbhtokgA-8" value="+id_prestamo [PK]&#10;+fecha_inicio&#10;+fecha_devolucion&#10;+fecha_devolucion_real&#10;+isbn_libro [FK]&#10;+rut_socio [FK]Â " style="align=left;strokeColor=none;fillColor=none;spacingLeft=4;fontSize=12;verticalAlign=top;resizable=0;rotatable=0;part=1;" parent="MRFSTMbE_hCWhbhtokgA-7" vertex="1">
                    <mxGeometry y="30" width="160" height="110" as="geometry"/>
                </mxCell>
                <mxCell id="MRFSTMbE_hCWhbhtokgA-9" value="Socio" style="swimlane;childLayout=stackLayout;horizontal=1;startSize=30;horizontalStack=0;rounded=1;fontSize=14;fontStyle=0;strokeWidth=2;resizeParent=0;resizeLast=1;shadow=0;dashed=0;align=center;" parent="1" vertex="1">
                    <mxGeometry x="550" y="200" width="160" height="120" as="geometry"/>
                </mxCell>
                <mxCell id="MRFSTMbE_hCWhbhtokgA-10" value="+rut [PK]&#10;+nombre&#10;+apellido&#10;+direccion&#10;+telefono" style="align=left;strokeColor=none;fillColor=none;spacingLeft=4;fontSize=12;verticalAlign=top;resizable=0;rotatable=0;part=1;" parent="MRFSTMbE_hCWhbhtokgA-9" vertex="1">
                    <mxGeometry y="30" width="160" height="90" as="geometry"/>
                </mxCell>
                <mxCell id="MRFSTMbE_hCWhbhtokgA-12" value="LibroAutor" style="swimlane;childLayout=stackLayout;horizontal=1;startSize=30;horizontalStack=0;rounded=1;fontSize=14;fontStyle=0;strokeWidth=2;resizeParent=0;resizeLast=1;shadow=0;dashed=0;align=center;" parent="1" vertex="1">
                    <mxGeometry x="330" y="-120" width="160" height="120" as="geometry"/>
                </mxCell>
                <mxCell id="MRFSTMbE_hCWhbhtokgA-13" value="+id_libroautor [PK]&#10;+isbn_libro [FK]&#10;+codigo_autor_autor [FK]&#10;+tipo_autor" style="align=left;strokeColor=none;fillColor=none;spacingLeft=4;fontSize=12;verticalAlign=top;resizable=0;rotatable=0;part=1;" parent="MRFSTMbE_hCWhbhtokgA-12" vertex="1">
                    <mxGeometry y="30" width="160" height="90" as="geometry"/>
                </mxCell>
                <mxCell id="MRFSTMbE_hCWhbhtokgA-16" value="" style="edgeStyle=entityRelationEdgeStyle;fontSize=12;html=1;endArrow=ERoneToMany;startArrow=ERmandOne;" parent="1" source="MRFSTMbE_hCWhbhtokgA-2" target="MRFSTMbE_hCWhbhtokgA-13" edge="1">
                    <mxGeometry width="100" height="100" relative="1" as="geometry">
                        <mxPoint x="160" y="-20" as="sourcePoint"/>
                        <mxPoint x="260" y="-120" as="targetPoint"/>
                    </mxGeometry>
                </mxCell>
                <mxCell id="MRFSTMbE_hCWhbhtokgA-17" value="" style="edgeStyle=entityRelationEdgeStyle;fontSize=12;html=1;endArrow=ERoneToMany;startArrow=ERmandOne;" parent="1" source="MRFSTMbE_hCWhbhtokgA-5" target="MRFSTMbE_hCWhbhtokgA-13" edge="1">
                    <mxGeometry width="100" height="100" relative="1" as="geometry">
                        <mxPoint x="410" y="150" as="sourcePoint"/>
                        <mxPoint x="510" y="50" as="targetPoint"/>
                    </mxGeometry>
                </mxCell>
                <mxCell id="MRFSTMbE_hCWhbhtokgA-20" value="" style="edgeStyle=entityRelationEdgeStyle;fontSize=12;html=1;endArrow=ERzeroToMany;startArrow=ERmandOne;" parent="1" source="MRFSTMbE_hCWhbhtokgA-9" target="MRFSTMbE_hCWhbhtokgA-7" edge="1">
                    <mxGeometry width="100" height="100" relative="1" as="geometry">
                        <mxPoint x="420" y="420" as="sourcePoint"/>
                        <mxPoint x="520" y="320" as="targetPoint"/>
                    </mxGeometry>
                </mxCell>
                <mxCell id="MRFSTMbE_hCWhbhtokgA-21" value="" style="edgeStyle=entityRelationEdgeStyle;fontSize=12;html=1;endArrow=ERzeroToMany;startArrow=ERmandOne;" parent="1" source="MRFSTMbE_hCWhbhtokgA-1" target="MRFSTMbE_hCWhbhtokgA-7" edge="1">
                    <mxGeometry width="100" height="100" relative="1" as="geometry">
                        <mxPoint x="-20" y="30" as="sourcePoint"/>
                        <mxPoint x="80" y="130" as="targetPoint"/>
                    </mxGeometry>
                </mxCell>
            </root>
        </mxGraphModel>
    </diagram>
</mxfile>